<?xml version="1.0" encoding="UTF-8" standalone="no"?>
<!-- Created with Inkscape (http://www.inkscape.org/) -->

<svg
   width="2876"
   height="512"
   viewBox="0 0 760.94169 135.46666"
   version="1.1"
   id="svg1"
   xml:space="preserve"
   inkscape:version="1.3.2 (091e20e, 2023-11-25, custom)"
   sodipodi:docname="Black Lion Logo + Wordscape.svg"
   inkscape:export-filename="Black Lion Logo.png"
   inkscape:export-xdpi="96"
   inkscape:export-ydpi="96"
   xmlns:inkscape="http://www.inkscape.org/namespaces/inkscape"
   xmlns:sodipodi="http://sodipodi.sourceforge.net/DTD/sodipodi-0.dtd"
   xmlns="http://www.w3.org/2000/svg"
   xmlns:svg="http://www.w3.org/2000/svg"><sodipodi:namedview
     id="namedview1"
     pagecolor="#ffffff"
     bordercolor="#000000"
     borderopacity="0.25"
     inkscape:showpageshadow="2"
     inkscape:pageopacity="0.0"
     inkscape:pagecheckerboard="0"
     inkscape:deskcolor="#d1d1d1"
     inkscape:document-units="mm"
     inkscape:zoom="0.36945288"
     inkscape:cx="1437.2604"
     inkscape:cy="12.180173"
     inkscape:window-width="2560"
     inkscape:window-height="1369"
     inkscape:window-x="-8"
     inkscape:window-y="-8"
     inkscape:window-maximized="1"
     inkscape:current-layer="layer1" /><defs
     id="defs1" /><g
     inkscape:label="Layer 1"
     inkscape:groupmode="layer"
     id="layer1"
     transform="translate(-65.82661,-73.152319)"><path
       style="fill:#000000;stroke-width:1.71596"
       d="m 130.20525,199.6136 c -12.04765,-9.72625 -18.88892,-22.4564 -20.57414,-38.28413 l -0.21701,-2.03822 -0.23583,0.85112 c -2.27945,8.22701 -0.66114,23.44879 3.28256,30.87568 1.18893,2.23904 1.14589,2.23007 -2.28923,-0.47774 -14.511558,-11.43901 -20.568642,-29.99567 -15.696672,-48.08877 0.473445,-1.75824 0.227443,-1.76523 -1.043917,-0.0297 -3.179982,4.34115 -4.835925,9.56719 -5.494324,17.3397 l -0.225781,2.66537 -1.011635,-2.50859 c -0.556401,-1.37973 -1.32393,-3.77856 -1.70562,-5.33075 l -0.693983,-2.82218 0.01757,-5.01718 0.01757,-5.01718 0.841734,-3.29252 c 1.855569,-7.25823 9.138524,-18.18729 12.119734,-18.18729 0.164097,0 0.297295,-1.19778 0.297295,-2.67342 v -2.67344 l -1.019115,0.52124 c -5.277129,2.69901 -11.303723,10.48431 -14.051862,18.15252 l -0.561894,1.56787 -0.02291,-3.64987 c -0.04582,-7.29811 2.244952,-14.43843 6.407187,-19.97121 l 1.656081,-2.20134 -0.745844,-1.09761 c -4.745442,-6.98353 -1.73537,-16.31678 5.986279,-18.561525 l 1.844315,-0.536157 2.840862,0.166431 c 5.9443,0.34823 15.79481,5.564911 20.30127,10.751241 l 0.52741,0.60699 -3.98648,-0.0949 -3.98647,-0.0949 -4.2235,1.6921 -4.2235,1.6921 -0.0828,9.71106 -0.0828,9.71106 0.70993,0.65118 c 0.39046,0.35815 2.96766,2.37697 5.72711,4.48626 l 5.01718,3.83507 0.15679,7.40994 0.15679,7.40994 0.75504,1.05864 c 3.14934,4.4157 13.49553,2.85516 13.50777,-2.03741 l 0.005,-1.91949 -3.99806,-2.96318 c -2.19894,-1.62975 -4.38612,-3.21631 -4.8604,-3.52572 l -0.86233,-0.56254 v -7.80329 -7.80328 h -1.91244 c -2.15149,0 -3.74321,-0.61434 -4.68114,-1.80672 l -0.61862,-0.78645 v -3.09345 c 0,-1.7014 0.0718,-3.09345 0.1595,-3.09345 0.0877,0 0.74598,0.42484 1.46278,0.94409 1.76332,1.27734 4.8664,2.19375 8.1769,2.41483 l 2.74378,0.18323 v 8.89044 8.89044 h 7.36898 7.36899 v -8.93686 -8.93686 h 1.73787 c 2.94421,0 6.37439,-0.86433 8.68846,-2.18932 l 2.11663,-1.21193 0.0487,2.24938 c 0.0692,3.18816 -0.005,3.7179 -0.63877,4.60119 -0.87102,1.21286 -2.46131,1.84946 -4.66237,1.86638 l -1.95983,0.0151 v 7.76343 7.76343 l -3.52771,2.48775 c -1.94024,1.36825 -4.12741,2.9716 -4.86039,3.563 l -1.33269,1.07526 v 1.9777 1.97769 l 0.80168,0.6306 c 1.40183,1.10268 3.86029,1.74419 6.7241,1.75459 l 2.66537,0.0103 1.55157,-0.7827 c 0.85337,-0.4305 1.84113,-1.18074 2.19503,-1.66722 l 0.64343,-0.88449 0.0942,-7.49348 0.0942,-7.49349 1.00334,-0.69565 c 0.55184,-0.38261 3.15722,-2.30027 5.78973,-4.26146 l 4.78638,-3.56578 -0.0827,-9.92484 -0.0827,-9.92483 -4.39003,-1.65729 -4.39003,-1.65729 -4.23324,-0.0156 -4.23327,-0.0156 1.72467,-1.568548 c 17.41125,-15.835247 41.58977,-9.144259 30.9292,8.559118 l -1.07757,1.78946 1.67663,2.24103 c 4.03634,5.3951 6.21209,11.80301 6.62687,19.51714 l 0.20262,3.76839 -0.36445,-0.22524 c -0.20044,-0.12389 -0.36443,-0.46562 -0.36443,-0.75941 0,-3.45225 -8.19038,-14.42103 -13.22326,-17.70897 -2.27585,-1.48681 -2.14186,-1.57108 -2.14186,1.34716 0,1.45781 0.13092,2.50859 0.31252,2.50859 0.17191,0 1.75938,1.44702 3.52771,3.21559 l 3.21517,3.21557 1.48496,2.54207 c 5.75892,9.85863 6.69779,21.96927 2.43242,31.37634 -0.77024,1.69874 -1.66683,2.8891 -1.13792,1.51076 1.0647,-2.77456 -2.03074,-13.88051 -5.20748,-18.68359 -1.9361,-2.92729 -2.03005,-2.85642 -1.19328,0.90021 4.22636,18.97384 -1.63545,35.9249 -16.18935,46.81615 -3.52225,2.63584 -3.47832,2.63155 -2.15111,0.20978 2.50355,-4.56836 3.91739,-10.83165 4.16047,-18.43114 l 0.15581,-4.86904 -0.52342,-4.05904 c -0.59556,-4.61832 -0.68446,-4.88138 -0.93712,-2.77256 -2.09967,17.52472 -8.3805,28.96677 -21.54372,39.24712 -2.54786,1.98985 -2.09474,2.03632 -5.28878,-0.54229 z m 8.04552,-35.50647 1.83205,-0.68454 1.8947,-1.90889 c 1.19496,-1.2039 2.142,-2.51217 2.56433,-3.54243 l 0.66962,-1.63355 -2.74959,0.003 c -3.23579,0.005 -5.1502,-0.40153 -7.66969,-1.6293 l -1.84133,-0.89728 -0.82405,0.58415 c -1.58592,1.12419 -3.86951,1.69715 -7.34073,1.84181 l -3.38093,0.14088 0.19641,0.67051 c 1.82937,6.24518 9.78893,9.61763 16.64921,7.05427 z M 102.85324,146.1179 c 0.69154,-1.72502 2.59579,-5.10496 3.70952,-6.58418 l 0.71007,-0.94311 -1.7655,-1.8372 -1.7655,-1.83719 -0.56252,0.69467 c -1.36239,1.6825 -2.44408,6.96245 -2.44764,11.94747 -0.003,3.91684 0.25467,4.43467 0.96908,1.94906 0.28746,-1.00013 0.80607,-2.52542 1.15249,-3.38952 z m 62.57915,2.59023 c 0.31542,-4.08393 -0.8876,-11.24635 -2.23753,-13.32148 l -0.25148,-0.38657 -1.84167,1.86109 -1.84167,1.8611 1.11383,1.818 c 2.18442,3.56537 4.3245,8.6045 4.3245,10.18262 0,1.73346 0.5641,0.1851 0.73402,-2.01476 z m -67.71243,-41.3324 c 0.07732,-0.42069 0.151056,-2.17669 0.163875,-3.90223 l 0.0233,-3.13733 1.959837,-0.756364 c 1.077908,-0.415997 2.433068,-0.952439 3.011448,-1.192092 l 1.05162,-0.435734 -0.58125,-0.642728 c -2.25251,-2.490724 -6.3592,-2.669199 -8.886215,-0.386192 l -1.214,1.096777 -0.330443,1.5408 c -0.597972,2.788243 0.265489,5.030883 2.821951,7.329363 1.775899,1.59669 1.775707,1.59664 1.979877,0.48573 z m 73.51255,-0.74854 c 1.2236,-1.11895 2.11147,-2.72453 2.52542,-4.56681 l 0.29514,-1.31365 -0.44749,-1.506863 c -0.54017,-1.818935 -2.05886,-3.267819 -3.9626,-3.780444 l -1.33511,-0.359506 -1.60427,0.359022 c -1.61413,0.361225 -3.72988,1.642472 -3.72988,2.258717 0,0.182308 1.25734,0.804545 2.7941,1.382747 3.43941,1.294067 3.30996,1.075877 3.31579,5.588997 l 0.005,3.72288 0.54875,-0.414 c 0.30182,-0.2277 1.01972,-0.84469 1.59534,-1.37109 z m -39.3428,-2.72311 c -1.85967,-1.49233 -3.32342,-2.36168 -4.83905,-2.87402 -0.75917,-0.25662 -1.47752,-0.65812 -1.59633,-0.89222 -0.11881,-0.234094 -0.80542,-1.657914 -1.52581,-3.164039 l -1.30981,-2.738412 -2.04022,-2.203628 c -3.27162,-3.53366 -7.51244,-5.982201 -12.63699,-7.296278 l -1.72465,-0.442249 2.19501,-0.677872 c 14.85041,-4.586149 34.81522,-4.597962 49.54468,-0.02931 l 2.19501,0.68083 -3.0424,0.852036 C 149.2296,87.3256 143.93121,91.84528 141.29698,98.607124 l -0.66891,1.717076 -2.48596,1.26188 c -1.36727,0.69403 -3.06023,1.71872 -3.76212,2.27708 l -1.27618,1.01521 z"
       id="path1"
       sodipodi:nodetypes="sscsssssscsscccssscsscsscsscsscccccccsscccsscsscccsscsssscccccccsscscccccsscccsccsscccsscccccccsscsscsssssscsssssssscssssccssccscsscsccsscccscsssscccssssscsscsscssssscsscsssscssssssscsscsscsscsscs" /><text
       xml:space="preserve"
       style="font-weight:300;font-size:66.1458px;font-family:Bahnschrift;-inkscape-font-specification:'Bahnschrift Light';letter-spacing:0px;word-spacing:0px;opacity:1;fill:#000000;stroke:#ffffff;stroke-width:0.529167"
       x="200.78801"
       y="164.00362"
       id="text1"><tspan
         sodipodi:role="line"
         id="tspan1"
         style="font-style:normal;font-variant:normal;font-weight:normal;font-stretch:normal;font-size:66.1458px;font-family:Poppins;-inkscape-font-specification:Poppins;fill:#000000;stroke-width:0.529167"
         x="200.78801"
         y="164.00362">BLACK LION GROUP</tspan></text></g></svg>
