<?xml version="1.0" encoding="UTF-8" standalone="no"?>
<!-- Created with Inkscape (http://www.inkscape.org/) -->

<svg
   width="96"
   height="26"
   viewBox="0 0 25.400001 6.8791663"
   version="1.1"
   id="svg1"
   xml:space="preserve"
   inkscape:version="1.3.2 (091e20e, 2023-11-25, custom)"
   sodipodi:docname="logo_lg.svg"
   inkscape:export-filename="logo_lg.svg"
   inkscape:export-xdpi="4.875"
   inkscape:export-ydpi="4.875"
   xmlns:inkscape="http://www.inkscape.org/namespaces/inkscape"
   xmlns:sodipodi="http://sodipodi.sourceforge.net/DTD/sodipodi-0.dtd"
   xmlns="http://www.w3.org/2000/svg"
   xmlns:svg="http://www.w3.org/2000/svg"><sodipodi:namedview
     id="namedview1"
     pagecolor="#ffffff"
     bordercolor="#000000"
     borderopacity="0.25"
     inkscape:showpageshadow="2"
     inkscape:pageopacity="0.0"
     inkscape:pagecheckerboard="0"
     inkscape:deskcolor="#d1d1d1"
     inkscape:document-units="mm"
     inkscape:zoom="8.3597643"
     inkscape:cx="74.523632"
     inkscape:cy="26.376342"
     inkscape:window-width="2560"
     inkscape:window-height="1369"
     inkscape:window-x="-8"
     inkscape:window-y="-8"
     inkscape:window-maximized="1"
     inkscape:current-layer="g1" /><defs
     id="defs1" /><g
     inkscape:label="Layer 1"
     inkscape:groupmode="layer"
     id="layer1"
     transform="translate(-65.82661,-73.152319)"><g
       id="g1"
       transform="matrix(0.05224654,0,0,0.05224654,61.890525,69.231114)"><g
         id="g2"
         transform="translate(0.49075543,-0.90853839)"><path
           style="fill:#000000;stroke-width:1.55332"
           d="m 130.47659,194.95603 c -10.90577,-8.8044 -17.09862,-20.32799 -18.62412,-34.65556 l -0.19644,-1.84504 -0.21348,0.77045 c -2.0634,7.44725 -0.59848,21.22631 2.97144,27.94928 1.07624,2.02683 1.03728,2.01871 -2.07226,-0.43246 -13.136153,-10.35482 -18.619146,-27.15268 -14.208941,-43.53091 0.428571,-1.5916 0.205885,-1.59792 -0.944975,-0.0269 -2.878583,3.9297 -4.377576,8.66042 -4.973572,15.69625 l -0.204381,2.41274 -0.915752,-2.27082 c -0.503666,-1.24896 -1.198448,-3.42043 -1.543962,-4.8255 l -0.628207,-2.5547 0.01591,-4.54165 0.01591,-4.54165 0.761954,-2.98046 c 1.679698,-6.57029 8.272374,-16.46349 10.971026,-16.46349 0.14854,0 0.26912,-1.08426 0.26912,-2.42004 v -2.42005 l -0.92253,0.47184 c -4.776959,2.4432 -10.232352,9.49061 -12.720023,16.43202 l -0.508637,1.41927 -0.02074,-3.30394 c -0.04148,-6.60639 2.032175,-13.06995 5.799914,-18.07833 l 1.499117,-1.9927 -0.675153,-0.99358 c -4.295677,-6.32162 -1.5709,-14.770266 5.41889,-16.802254 l 1.669512,-0.48534 2.5716,0.150657 c 5.38091,0.315225 14.29779,5.037467 18.37712,9.732237 l 0.47743,0.54946 -3.60865,-0.0859 -3.60863,-0.0859 -3.82319,1.53172 -3.8232,1.53173 -0.075,8.79064 -0.075,8.79065 0.64264,0.58946 c 0.35345,0.3242 2.68638,2.15168 5.18429,4.06105 l 4.54165,3.47158 0.14193,6.70763 0.14193,6.70762 0.68348,0.95831 c 2.85085,3.99718 12.21642,2.58454 12.2275,-1.84431 l 0.005,-1.73756 -3.61913,-2.68233 c -1.99052,-1.47528 -3.9704,-2.91147 -4.39973,-3.19155 l -0.78059,-0.50922 v -7.0637 -7.06368 h -1.73118 c -1.94757,0 -3.38843,-0.55611 -4.23746,-1.63548 l -0.55999,-0.71191 v -2.80025 c 0,-1.54015 0.065,-2.80026 0.14438,-2.80026 0.0794,0 0.67528,0.38458 1.32414,0.85461 1.59619,1.15628 4.40516,1.98583 7.40189,2.18595 l 2.48373,0.16587 v 8.0478 8.04781 h 6.67054 6.67056 v -8.08983 -8.08982 h 1.57315 c 2.66516,0 5.77023,-0.78241 7.86497,-1.98182 l 1.91602,-1.09706 0.0441,2.03618 c 0.0626,2.88599 -0.005,3.36552 -0.57823,4.16509 -0.78846,1.09791 -2.22802,1.67417 -4.22047,1.68949 l -1.77407,0.0137 v 7.02762 7.02761 l -3.19336,2.25196 c -1.75634,1.23857 -3.73621,2.68995 -4.39972,3.2253 l -1.20638,0.97334 v 1.79026 1.79024 l 0.7257,0.57083 c 1.26897,0.99817 3.49441,1.57888 6.08679,1.58829 l 2.41275,0.009 1.40451,-0.70852 c 0.77249,-0.3897 1.66663,-1.06883 1.98698,-1.5092 l 0.58245,-0.80066 0.0853,-6.78324 0.0853,-6.78326 0.90825,-0.62972 c 0.49953,-0.34634 2.85797,-2.08225 5.24098,-3.85756 l 4.33272,-3.22781 -0.0749,-8.98416 -0.0749,-8.98416 -3.97394,-1.50021 -3.97395,-1.50021 -3.83201,-0.0141 -3.83204,-0.0141 1.5612,-1.41988 c 15.76102,-14.334386 37.64789,-8.27757 27.99773,7.74788 l -0.97543,1.61985 1.51771,2.02863 c 3.65378,4.88375 5.62331,10.68432 5.99878,17.6673 l 0.18342,3.41122 -0.32991,-0.20389 c -0.18144,-0.11215 -0.32989,-0.42149 -0.32989,-0.68743 0,-3.12505 -7.4141,-13.0542 -11.96996,-16.03051 -2.06014,-1.34589 -1.93885,-1.42218 -1.93885,1.21947 0,1.31964 0.11851,2.27083 0.2829,2.27083 0.15561,0 1.59262,1.30987 3.19335,2.91081 l 2.91043,2.9108 1.34422,2.30113 c 5.21309,8.92423 6.06297,19.88703 2.20188,28.40249 -0.69724,1.53774 -1.50885,2.61527 -1.03007,1.36757 0.96378,-2.51158 -1.83827,-12.56491 -4.71392,-16.91275 -1.75259,-2.64985 -1.83764,-2.58569 -1.08018,0.81488 3.82579,17.1755 -1.48044,32.51994 -14.65492,42.37892 -3.18841,2.38601 -3.14865,2.38213 -1.94723,0.18989 2.26626,-4.13537 3.5461,-9.80502 3.76614,-16.68423 l 0.14104,-4.40755 -0.47381,-3.67433 c -0.53911,-4.18059 -0.61958,-4.41872 -0.8483,-2.50977 -1.90066,15.86372 -7.58619,26.22129 -19.5018,35.52727 -2.30637,1.80125 -1.8962,1.84332 -4.78751,-0.49089 z m 7.28297,-32.14117 1.65841,-0.61966 1.71512,-1.72796 c 1.0817,-1.0898 1.93898,-2.27407 2.32128,-3.20668 l 0.60615,-1.47872 -2.48898,0.003 c -2.9291,0.005 -4.66206,-0.36347 -6.94276,-1.47487 l -1.66681,-0.81224 -0.74594,0.52879 c -1.43561,1.01763 -3.50276,1.53629 -6.64498,1.66724 l -3.06048,0.12753 0.17779,0.60695 c 1.65598,5.65327 8.86114,8.70608 15.0712,6.38567 z m -32.04255,-16.28421 c 0.62599,-1.56152 2.34976,-4.62111 3.35793,-5.96013 l 0.64277,-0.85372 -1.59817,-1.66307 -1.59816,-1.66306 -0.50921,0.62883 c -1.23326,1.52303 -2.21243,6.30254 -2.21565,10.81508 -0.003,3.54561 0.23053,4.01436 0.87723,1.76433 0.26022,-0.90534 0.72967,-2.28606 1.04326,-3.06826 z m 56.64789,2.34473 c 0.28553,-3.69686 -0.80347,-10.18042 -2.02545,-12.05887 l -0.22765,-0.34993 -1.66711,1.68469 -1.66712,1.68471 1.00826,1.64569 c 1.97738,3.22744 3.91462,7.78896 3.91462,9.21751 0,1.56916 0.51064,0.16756 0.66445,-1.8238 z m -61.29464,-37.41491 c 0.07,-0.38082 0.13674,-1.97039 0.14834,-3.53238 l 0.0211,-2.83998 1.77408,-0.68467 c 0.97575,-0.37657 2.20247,-0.86217 2.72603,-1.07911 l 0.95195,-0.39443 -0.52616,-0.58181 c -2.03902,-2.25466 -5.75648,-2.416215 -8.043984,-0.34959 l -1.098937,0.99282 -0.299123,1.39477 c -0.541296,2.52397 0.240326,4.55405 2.554486,6.63468 1.607578,1.44536 1.607408,1.44531 1.792228,0.4397 z m 66.54503,-0.6776 c 1.10763,-1.01289 1.91134,-2.4663 2.28606,-4.13397 l 0.26717,-1.18914 -0.40508,-1.36404 c -0.48897,-1.64654 -1.86372,-2.9581 -3.58703,-3.42213 l -1.20856,-0.32544 -1.45222,0.325 c -1.46114,0.32699 -3.37636,1.4868 -3.37636,2.04463 0,0.16503 1.13817,0.72829 2.52927,1.25169 3.11342,1.17142 2.99624,0.97391 3.00152,5.05928 l 0.005,3.37002 0.49674,-0.37476 c 0.27321,-0.20612 0.92307,-0.76463 1.44413,-1.24114 z m -35.61389,-2.46501 c -1.68341,-1.35089 -3.00843,-2.13784 -4.3804,-2.60162 -0.68722,-0.2323 -1.33748,-0.59575 -1.44503,-0.80766 -0.10755,-0.2119 -0.72909,-1.50077 -1.3812,-2.86415 l -1.18566,-2.478865 -1.84685,-1.994768 c -2.96154,-3.19874 -6.80041,-5.415208 -11.43926,-6.604736 l -1.56118,-0.400333 1.98696,-0.613623 c 13.44289,-4.151474 31.51543,-4.162167 44.84884,-0.02653 l 1.98696,0.616301 -2.75404,0.77128 c -7.13273,1.997532 -11.92893,6.088837 -14.31349,12.209794 l -0.60551,1.55433 -2.25034,1.14228 c -1.23768,0.62825 -2.77018,1.55582 -3.40555,2.06126 l -1.15522,0.91899 z"
           id="path1"
           sodipodi:nodetypes="sscsssssscsscccssscsscsscsscsscccccccsscccsscsscccsscsssscccccccsscscccccsscccsccsscccsscccccccsscsscsssssscsssssssscssssccssccscsscsccsscccscsssscccssssscsscsscssssscsscsssscssssssscsscsscsscsscs" /><text
           xml:space="preserve"
           style="font-weight:300;font-size:37.7584px;font-family:Bahnschrift;-inkscape-font-specification:'Bahnschrift Light';letter-spacing:0px;word-spacing:0px;opacity:1;fill:#000000;stroke:#ffffff;stroke-width:0.302068"
           x="202.25452"
           y="154.99075"
           id="text1"><tspan
             sodipodi:role="line"
             id="tspan1"
             style="font-style:normal;font-variant:normal;font-weight:normal;font-stretch:normal;font-size:37.7584px;font-family:Poppins;-inkscape-font-specification:Poppins;fill:#000000;stroke-width:0.302068"
             x="202.25452"
             y="154.99075">BLACK LION GROUP</tspan></text></g></g></g></svg>
