<?xml version="1.0" encoding="UTF-8" standalone="no"?>
<!-- Created with Inkscape (http://www.inkscape.org/) -->

<svg
   width="150"
   height="40.625"
   viewBox="0 0 39.687502 10.748698"
   version="1.1"
   id="svg1"
   xml:space="preserve"
   inkscape:version="1.3.2 (091e20e, 2023-11-25, custom)"
   sodipodi:docname="logo_lg.svg"
   inkscape:export-filename="logo_lg.svg"
   inkscape:export-xdpi="4.875"
   inkscape:export-ydpi="4.875"
   xmlns:inkscape="http://www.inkscape.org/namespaces/inkscape"
   xmlns:sodipodi="http://sodipodi.sourceforge.net/DTD/sodipodi-0.dtd"
   xmlns="http://www.w3.org/2000/svg"
   xmlns:svg="http://www.w3.org/2000/svg"><sodipodi:namedview
     id="namedview1"
     pagecolor="#444444"
     bordercolor="#000000"
     borderopacity="0.25"
     inkscape:showpageshadow="2"
     inkscape:pageopacity="0.0"
     inkscape:pagecheckerboard="0"
     inkscape:deskcolor="#d1d1d1"
     inkscape:document-units="mm"
     inkscape:zoom="5.911246"
     inkscape:cx="98.625569"
     inkscape:cy="5.836333"
     inkscape:window-width="2560"
     inkscape:window-height="1369"
     inkscape:window-x="-8"
     inkscape:window-y="-8"
     inkscape:window-maximized="1"
     inkscape:current-layer="g3" /><defs
     id="defs1" /><g
     inkscape:label="Layer 1"
     inkscape:groupmode="layer"
     id="layer1"
     transform="translate(-65.82661,-73.152319)"><g
       id="g1"
       transform="matrix(0.05224654,0,0,0.05224654,61.890525,69.231114)"><g
         id="g2"
         transform="translate(0.49075543,-0.90853839)"><g
           id="g3"
           transform="translate(1.3377686,8.5172309)"><g
             id="g4"
             transform="matrix(0.86034963,0,0,0.86034963,61.290895,-2.1582195)"><path
               style="fill:#000000;stroke-width:3.17315"
               d="m 198.31477,309.06103 c -22.2785,-17.98578 -34.92936,-41.52638 -38.04568,-70.795 l -0.4013,-3.76908 -0.4361,1.57389 c -4.21515,15.21337 -1.22258,43.36149 6.07011,57.0953 2.19856,4.14043 2.11897,4.12385 -4.23325,-0.88345 -26.83477,-21.15301 -38.03552,-55.46798 -29.02628,-88.92572 0.87549,-3.25135 0.42059,-3.26426 -1.93042,-0.0549 -5.88041,8.02766 -8.94258,17.69165 -10.16009,32.06458 l -0.41751,4.92879 -1.87072,-4.63888 c -1.0289,-2.55139 -2.44821,-6.98732 -3.15403,-9.85762 l -1.28331,-5.21879 0.0325,-9.27776 0.0325,-9.27777 1.55653,-6.08853 c 3.43132,-13.42191 16.89895,-33.63191 22.4118,-33.63191 0.30344,0 0.54976,-2.21495 0.54976,-4.94371 v -4.94372 l -1.88456,0.96389 c -9.75844,4.99101 -20.90282,19.38758 -25.98468,33.56763 l -1.03905,2.8993 -0.0424,-6.74934 c -0.0847,-13.49566 4.15136,-26.69953 11.84816,-36.93074 l 3.06242,-4.07073 -1.37921,-2.02969 c -8.77528,-12.91393 -3.20906,-30.17297 11.06981,-34.32395 l 3.4105,-0.99146 5.25332,0.30776 c 10.99222,0.64394 29.20778,10.29063 37.54111,19.88119 l 0.97531,1.12245 -7.37182,-0.17549 -7.37177,-0.17547 -7.81009,3.12902 -7.8101,3.12905 -0.15321,17.95768 -0.15321,17.95769 1.31279,1.20417 c 0.72204,0.66228 5.48779,4.39548 10.59056,8.29598 l 9.27777,7.0918 0.28994,13.70248 0.28994,13.70244 1.39622,1.95766 c 5.82377,8.1655 24.95593,5.27974 24.97856,-3.7676 l 0.01,-3.54951 -7.39322,-5.47952 c -4.06627,-3.01373 -8.1108,-5.94761 -8.98786,-6.51975 l -1.5946,-1.04024 v -14.4299 -14.42982 h -3.53648 c -3.97853,0 -6.92195,-1.13603 -8.65637,-3.34098 l -1.14394,-1.4543 v -5.7204 c 0,-3.14625 0.13277,-5.72042 0.29494,-5.72042 0.16219,0 1.37947,0.78563 2.70497,1.74581 3.26073,2.36206 8.99894,4.05669 15.12071,4.4655 l 5.07382,0.33884 v 16.44019 16.44021 h 13.6267 13.62673 V 171.29213 154.7661 h 3.21366 c 5.44444,0 11.78753,-1.59832 16.06671,-4.0485 l 3.91408,-2.24109 0.0901,4.15954 c 0.12787,5.89556 -0.01,6.87515 -1.18123,8.50853 -1.61067,2.24283 -4.55143,3.42003 -8.62164,3.45131 l -3.6241,0.028 v 14.35615 14.35613 l -6.52346,4.60033 c -3.58789,2.53018 -7.6324,5.49508 -8.98783,6.58871 l -2.46441,1.98836 v 3.65718 3.65712 l 1.48247,1.16611 c 2.59227,2.03907 7.13844,3.22537 12.43421,3.24459 l 4.9288,0.0184 2.86915,-1.44737 c 1.57807,-0.79609 3.40463,-2.18343 4.05905,-3.08302 l 1.18984,-1.6356 0.17425,-13.85694 0.17425,-13.85695 1.8554,-1.28641 c 1.02044,-0.70751 5.8383,-4.25365 10.70636,-7.8803 l 8.85097,-6.59382 -0.15303,-18.353 -0.15301,-18.35302 -8.11803,-3.06464 -8.11806,-3.06466 -7.8281,-0.0288 -7.82816,-0.0288 3.18927,-2.90056 c 32.19689,-29.282528 76.90778,-16.90957 57.19426,15.82752 l -1.99262,3.30906 3.1004,4.14411 c 7.46401,9.97662 11.48739,21.82613 12.25442,36.09108 l 0.37468,6.96851 -0.67393,-0.41651 c -0.37066,-0.2291 -0.67392,-0.86103 -0.67392,-1.4043 0,-6.3839 -15.14565,-26.66735 -24.45244,-32.74741 -4.20849,-2.7494 -3.96072,-2.90526 -3.96072,2.49115 0,2.69579 0.24209,4.63889 0.57791,4.63889 0.31788,0 3.25343,2.67583 6.52344,5.94627 l 5.94548,5.94623 2.74597,4.70079 c 10.64941,18.23057 12.38556,40.62557 4.49805,58.02112 -1.42433,3.14132 -3.0823,5.34251 -2.10425,2.79369 1.96883,-5.1307 -3.75524,-25.66783 -9.62967,-34.54967 -3.58023,-5.41316 -3.75397,-5.28209 -2.20662,1.66465 7.8154,35.08642 -3.02427,66.43232 -29.93733,86.57242 -6.51335,4.87419 -6.43211,4.86626 -3.97784,0.38791 4.62956,-8.44781 7.24403,-20.02986 7.69354,-34.08284 l 0.28811,-9.00382 -0.9679,-7.50599 c -1.10131,-8.54019 -1.26568,-9.02665 -1.73292,-5.127 -3.8827,32.40669 -15.49721,53.56532 -39.83863,72.57574 -4.71149,3.67963 -3.87359,3.76556 -9.78001,-1.00279 z m 14.87779,-65.65856 3.38783,-1.26585 3.50367,-3.5299 c 2.20972,-2.22627 3.96099,-4.64552 4.74195,-6.55067 l 1.23825,-3.02075 -5.08452,0.006 c -5.98363,0.01 -9.52375,-0.74251 -14.18281,-3.0129 l -3.40498,-1.65925 -1.52382,1.08022 c -2.93269,2.07883 -7.1555,3.13836 -13.57449,3.40586 l -6.252,0.26052 0.36319,1.23989 c 3.38287,11.54861 18.1017,17.78494 30.78773,13.04476 z M 147.73545,210.1368 c 1.27878,-3.18991 4.80013,-9.44009 6.85965,-12.17547 l 1.31305,-1.74399 -3.26477,-3.39734 -3.26475,-3.39734 -1.04021,1.28458 c -2.51933,3.11128 -4.5196,12.87495 -4.52618,22.09325 -0.006,7.24303 0.47094,8.2006 1.79202,3.6042 0.53158,-1.84944 1.49059,-4.67001 2.13119,-6.26789 z m 115.72133,4.78985 c 0.58329,-7.55201 -1.64134,-20.79674 -4.13762,-24.63408 l -0.46505,-0.71484 -3.4056,3.44151 -3.40563,3.44156 2.05969,3.36185 c 4.03943,6.59307 7.99687,15.91142 7.99687,18.82969 0,3.20551 1.04314,0.3423 1.35734,-3.72569 z M 138.24299,138.4948 c 0.14299,-0.77795 0.27934,-4.02514 0.30303,-7.21601 l 0.0431,-5.80156 3.62412,-1.39866 c 1.99329,-0.76927 4.49925,-1.76125 5.5688,-2.20442 l 1.94465,-0.80575 -1.07484,-1.18853 c -4.16536,-4.60587 -11.75944,-4.9359 -16.43241,-0.71415 l -2.24492,2.02815 -0.61105,2.84926 c -1.10578,5.15601 0.49093,9.30309 5.21835,13.55344 3.28398,2.9526 3.28363,2.9525 3.66119,0.89823 z m 135.93939,-1.38422 c 2.26268,-2.06914 3.90452,-5.0382 4.67,-8.44494 l 0.54578,-2.4292 -0.8275,-2.78648 c -0.99888,-3.36359 -3.80725,-6.04287 -7.32766,-6.99079 l -2.46886,-0.66481 -2.96663,0.66391 c -2.98484,0.66798 -6.89728,3.03726 -6.89728,4.17681 0,0.33713 2.32508,1.48776 5.16683,2.55697 6.36015,2.39299 6.12077,1.98952 6.13157,10.33519 l 0.01,6.88434 1.01474,-0.76558 c 0.55813,-0.42106 1.88568,-1.562 2.9501,-2.53542 z m -72.7527,-5.03556 c -3.43891,-2.75962 -6.14568,-4.36722 -8.94836,-5.31463 -1.40386,-0.47455 -2.73223,-1.21701 -2.95193,-1.64991 -0.21971,-0.43287 -1.4894,-3.0658 -2.82154,-5.85094 l -2.42209,-5.06387 -3.77278,-4.07494 c -6.04989,-6.53445 -13.892,-11.062288 -23.36833,-13.492268 l -3.18921,-0.81781 4.05901,-1.25352 c 27.46138,-8.480709 64.38029,-8.502553 91.61801,-0.0542 l 4.05899,1.25899 -5.62599,1.57558 c -14.57087,4.080598 -24.36864,12.438388 -29.23985,24.942388 l -1.23695,3.17521 -4.59704,2.33347 c -2.52835,1.28341 -5.65897,3.17826 -6.95692,4.21079 l -2.3599,1.87732 z"
               id="path1"
               sodipodi:nodetypes="sscsssssscsscccssscsscsscsscsscccccccsscccsscsscccsscsssscccccccsscscccccsscccsccsscccsscccccccsscsscsssssscsssssssscssssccssccscsscsccsscccscsssscccssssscsscsscssssscsscsssscssssssscsscsscsscsscs" /><text
               xml:space="preserve"
               style="font-weight:300;font-size:81.0858px;font-family:Bahnschrift;-inkscape-font-specification:'Bahnschrift Light';letter-spacing:0px;word-spacing:0px;opacity:1;fill:#000000;stroke:none;stroke-width:0.648687"
               x="589.12933"
               y="176.3403"
               id="text1"><tspan
                 sodipodi:role="line"
                 id="tspan1"
                 style="font-style:normal;font-variant:normal;font-weight:normal;font-stretch:normal;font-size:81.0858px;font-family:Poppins;-inkscape-font-specification:Poppins;text-align:center;text-anchor:middle;fill:#000000;stroke:none;stroke-width:0.648687"
                 x="589.12933"
                 y="176.3403">BLACK LION </tspan><tspan
                 sodipodi:role="line"
                 style="font-style:normal;font-variant:normal;font-weight:normal;font-stretch:normal;font-size:81.0858px;font-family:Poppins;-inkscape-font-specification:Poppins;text-align:center;text-anchor:middle;fill:#000000;stroke:none;stroke-width:0.648687"
                 x="589.12933"
                 y="281.26089"
                 id="tspan3">GROUP</tspan></text></g></g></g></g></g></svg>
